<svg width="174" height="48" viewBox="0 0 174 48" fill="none" xmlns="http://www.w3.org/2000/svg">
<path d="M103.49 16.5498C105.64 16.5498 107.6 17.05 109.35 18.0498C111.1 19.0498 112.48 20.4299 113.49 22.1699C114.5 23.9098 115 25.8697 115 28.0195C115 30.1695 114.5 32.1201 113.49 33.8701C112.49 35.6201 111.1 36.9902 109.35 37.9902C107.59 38.9901 105.61 39.4902 103.46 39.4902C101.31 39.4902 99.3496 38.9902 97.5996 37.9902C95.8497 36.9903 94.4699 35.62 93.46 33.8701C92.45 32.1301 91.9502 30.1695 91.9502 28.0195C91.9503 25.8697 92.4503 23.9198 93.4502 22.1699C94.4502 20.42 95.8299 19.0498 97.5898 18.0498C99.3598 17.0498 101.34 16.5498 103.49 16.5498ZM165.41 16.5498C166.98 16.5498 168.36 16.9001 169.54 17.5801C170.72 18.26 171.64 19.2499 172.3 20.5498L172.31 20.5801C172.96 21.87 173.29 23.4198 173.29 25.2197V39H168.26V25.9902C168.26 24.9302 168.08 24.03 167.72 23.29C167.36 22.5501 166.85 21.9798 166.18 21.5898C165.51 21.2 164.71 21 163.78 21C162.78 21 161.9 21.2199 161.13 21.6699C160.36 22.1199 159.76 22.7399 159.34 23.5498C158.92 24.3598 158.71 25.2699 158.71 26.2998V38.9902H153.66V17.0703H158.56V20.2803C159.189 19.2204 160 18.3604 161.01 17.7305C162.26 16.9405 163.73 16.5498 165.41 16.5498ZM124.83 11.71V17.0596H130.65L130.63 21.4502H124.81L124.83 32.5098C124.83 33.1097 125.03 33.61 125.42 34C125.81 34.39 126.31 34.5898 126.91 34.5898H130.63V38.9805H125.9C124.731 38.9805 123.67 38.7303 122.74 38.2305C121.81 37.7305 121.08 37.0303 120.56 36.1504C120.04 35.2605 119.78 34.2602 119.78 33.1504L119.76 21.4404H115.91L115.93 17.0498H118.33C118.88 17.0498 119.31 16.8897 119.64 16.5498C119.97 16.2198 120.13 15.7898 120.13 15.2598V11.71H124.83ZM138.81 9.01953V38.9805H133.76V9.01953H138.81ZM148.77 17.0596V38.9805H143.72V17.0596H148.77ZM73.2002 9.00977V22.5996L85.5703 9.00977H91.9609L78.8096 23.4502L92.25 38.9697H85.6602L73.2002 24.6699V38.9697H68V9.00977H73.2002ZM103.48 21.04C102.26 21.04 101.16 21.3399 100.22 21.9199C99.2798 22.4999 98.5395 23.3199 98.0195 24.3799C97.4996 25.4397 97.2403 26.6598 97.2402 28.0195C97.2402 29.3793 97.4997 30.5798 98.0195 31.6396C98.5395 32.6895 99.2799 33.5096 100.22 34.0996C101.16 34.6896 102.26 34.9805 103.48 34.9805C104.7 34.9804 105.79 34.6795 106.75 34.0996C107.7 33.5196 108.44 32.6996 108.96 31.6396C109.48 30.5797 109.74 29.3894 109.74 28.0195C109.74 26.6497 109.47 25.4395 108.95 24.3896C108.43 23.3398 107.69 22.5196 106.74 21.9297C105.79 21.3398 104.7 21.0401 103.48 21.04ZM149.11 9.74023V14.75H143.35V9.74023H149.11ZM91.9697 9.00977H91.9609L91.9697 9V9.00977Z" fill="white"/>
<path d="M48 48H0V0H48L23.505 23.6475L48 48Z" fill="url(#paint0_radial_4160_34)"/>
<defs>
<radialGradient id="paint0_radial_4160_34" cx="0" cy="0" r="1" gradientUnits="userSpaceOnUse" gradientTransform="translate(48 -1.13738e-06) rotate(180) scale(48)">
<stop stop-color="#E44857"/>
<stop offset="0.504494" stop-color="#C711E1"/>
<stop offset="1" stop-color="#7F52FF"/>
</radialGradient>
</defs>
</svg>
