<?xml version="1.0" encoding="UTF-8"?>
<svg xmlns="http://www.w3.org/2000/svg"
     width="64" height="64" viewBox="0 0 64 64"
     shape-rendering="geometricPrecision">

  <circle cx="32" cy="32" r="26" fill="none" stroke="#dcdcdc" stroke-width="3"/>

  <g transform="translate(32 32) scale(0.78) translate(-32 -32)">
	<path d="M0 0 C1.98 0 3.96 0 6 0 C6 1.32 6 2.64 6 4 C7.98 4 9.96 4 12 4 C12 3.34 12 2.68 12 2 C15.3 2 18.6 2 22 2 C22 4.97 22 7.94 22 11 C24.31 11.33 26.62 11.66 29 12 C29 14.64 29 17.28 29 20 C28.34 20 27.68 20 27 20 C27 21.65 27 23.3 27 25 C27.66 25 28.32 25 29 25 C30.39935013 27.79870027 30.25265405 29.90498792 30 33 C28.625 34.875 28.625 34.875 27 36 C26.34 36 25.68 36 25 36 C25 37.32 25 38.64 25 40 C25.99 40.495 25.99 40.495 27 41 C27 42.32 27 43.64 27 45 C26.34 45 25.68 45 25 45 C24.67 46.32 24.34 47.64 24 49 C23.34 49 22.68 49 22 49 C22 50.65 22 52.3 22 54 C20.68 54 19.36 54 18 54 C18 54.66 18 55.32 18 56 C16.35 56 14.7 56 13 56 C13 56.66 13 57.32 13 58 C12.01 58 11.02 58 10 58 C10 58.66 10 59.32 10 60 C5.38 60 0.76 60 -4 60 C-4 59.34 -4 58.68 -4 58 C-5.65 58 -7.3 58 -9 58 C-9 57.34 -9 56.68 -9 56 C-11.31 56 -13.62 56 -16 56 C-16 53.69 -16 51.38 -16 49 C-16.66 49 -17.32 49 -18 49 C-18 48.34 -18 47.68 -18 47 C-18.99 47 -19.98 47 -21 47 C-21 35.45 -21 23.9 -21 12 C-20.01 11.67 -19.02 11.34 -18 11 C-18 10.34 -18 9.68 -18 9 C-17.34 9 -16.68 9 -16 9 C-15.67 7.68 -15.34 6.36 -15 5 C-13.68 4.67 -12.36 4.34 -11 4 C-11 3.34 -11 2.68 -11 2 C-10.01 2 -9.02 2 -8 2 C-8 2.66 -8 3.32 -8 4 C-7.13375 3.505 -7.13375 3.505 -6.25 3 C-4 2 -4 2 0 2 C0 1.34 0 0.68 0 0 Z " fill="#017C29" transform="translate(29,3)"/>
	<path d="M0 0 C1.98 0 3.96 0 6 0 C6 1.32 6 2.64 6 4 C7.98 4 9.96 4 12 4 C12 3.34 12 2.68 12 2 C15.3 2 18.6 2 22 2 C22 4.97 22 7.94 22 11 C24.31 11.33 26.62 11.66 29 12 C29 14.64 29 17.28 29 20 C28.34 20 27.68 20 27 20 C27 21.65 27 23.3 27 25 C27.66 25 28.32 25 29 25 C30.39935013 27.79870027 30.25265405 29.90498792 30 33 C28.625 34.875 28.625 34.875 27 36 C26.34 36 25.68 36 25 36 C25 37.32 25 38.64 25 40 C25.99 40.495 25.99 40.495 27 41 C27 42.32 27 43.64 27 45 C26.34 45 25.68 45 25 45 C25 44.34 25 43.68 25 43 C24.34 43 23.68 43 23 43 C22.505 39.535 22.505 39.535 22 36 C21.34 36 20.68 36 20 36 C20 32.37 20 28.74 20 25 C19.34 25 18.68 25 18 25 C18 24.01 18 23.02 18 22 C17.34 22 16.68 22 16 22 C16 21.34 16 20.68 16 20 C15.34 20 14.68 20 14 20 C14 19.34 14 18.68 14 18 C11.69 17.67 9.38 17.34 7 17 C7 16.34 7 15.68 7 15 C2.38 15.33 -2.24 15.66 -7 16 C-7.33 17.32 -7.66 18.64 -8 20 C-8.66 20 -9.32 20 -10 20 C-10 20.66 -10 21.32 -10 22 C-10.66 22 -11.32 22 -12 22 C-12 22.99 -12 23.98 -12 25 C-12.66 25 -13.32 25 -14 25 C-14 28.63 -14 32.26 -14 36 C-14.66 36 -15.32 36 -16 36 C-16.495 34.515 -16.495 34.515 -17 33 C-17.66 32.67 -18.32 32.34 -19 32 C-19 28.7 -19 25.4 -19 22 C-18.34 22 -17.68 22 -17 22 C-17 19.69 -17 17.38 -17 15 C-17.66 15 -18.32 15 -19 15 C-19 14.34 -19 13.68 -19 13 C-18.34 13 -17.68 13 -17 13 C-16.34 10.36 -15.68 7.72 -15 5 C-13.68 4.67 -12.36 4.34 -11 4 C-11 3.34 -11 2.68 -11 2 C-10.01 2 -9.02 2 -8 2 C-8 2.66 -8 3.32 -8 4 C-7.13375 3.505 -7.13375 3.505 -6.25 3 C-4 2 -4 2 0 2 C0 1.34 0 0.68 0 0 Z " fill="#007D2A" transform="translate(29,3)"/>
	<path d="M0 0 C0.89203125 0.00902344 1.7840625 0.01804687 2.703125 0.02734375 C3.37859375 0.03894531 4.0540625 0.05054687 4.75 0.0625 C4.75 0.7225 4.75 1.3825 4.75 2.0625 C7.06 2.3925 9.37 2.7225 11.75 3.0625 C11.75 3.7225 11.75 4.3825 11.75 5.0625 C12.41 5.0625 13.07 5.0625 13.75 5.0625 C13.75 5.7225 13.75 6.3825 13.75 7.0625 C14.41 7.0625 15.07 7.0625 15.75 7.0625 C15.75 8.0525 15.75 9.0425 15.75 10.0625 C16.41 10.0625 17.07 10.0625 17.75 10.0625 C17.75 13.6925 17.75 17.3225 17.75 21.0625 C17.09 21.0625 16.43 21.0625 15.75 21.0625 C15.75 22.3825 15.75 23.7025 15.75 25.0625 C14.43 25.3925 13.11 25.7225 11.75 26.0625 C11.42 27.3825 11.09 28.7025 10.75 30.0625 C7.78 30.0625 4.81 30.0625 1.75 30.0625 C1.75 28.7425 1.75 27.4225 1.75 26.0625 C2.41 26.0625 3.07 26.0625 3.75 26.0625 C3.75 19.1325 3.75 12.2025 3.75 5.0625 C3.09 5.0625 2.43 5.0625 1.75 5.0625 C1.75 3.7425 1.75 2.4225 1.75 1.0625 C1.09 1.0625 0.43 1.0625 -0.25 1.0625 C-0.25 1.7225 -0.25 2.3825 -0.25 3.0625 C-0.91 3.0625 -1.57 3.0625 -2.25 3.0625 C-2.25 4.3825 -2.25 5.7025 -2.25 7.0625 C-2.91 7.0625 -3.57 7.0625 -4.25 7.0625 C-4.25 13.0025 -4.25 18.9425 -4.25 25.0625 C-3.59 25.0625 -2.93 25.0625 -2.25 25.0625 C-2.25 26.0525 -2.25 27.0425 -2.25 28.0625 C-1.59 28.0625 -0.93 28.0625 -0.25 28.0625 C-0.25 28.7225 -0.25 29.3825 -0.25 30.0625 C-2.56 30.0625 -4.87 30.0625 -7.25 30.0625 C-7.25 29.4025 -7.25 28.7425 -7.25 28.0625 C-8.57 28.0625 -9.89 28.0625 -11.25 28.0625 C-11.25 27.4025 -11.25 26.7425 -11.25 26.0625 C-12.24 25.7325 -13.23 25.4025 -14.25 25.0625 C-14.25 23.7425 -14.25 22.4225 -14.25 21.0625 C-14.91 21.0625 -15.57 21.0625 -16.25 21.0625 C-16.25 17.4325 -16.25 13.8025 -16.25 10.0625 C-15.59 10.0625 -14.93 10.0625 -14.25 10.0625 C-14.25 9.0725 -14.25 8.0825 -14.25 7.0625 C-13.59 7.0625 -12.93 7.0625 -12.25 7.0625 C-12.25 6.4025 -12.25 5.7425 -12.25 5.0625 C-11.59 5.0625 -10.93 5.0625 -10.25 5.0625 C-9.92 3.7425 -9.59 2.4225 -9.25 1.0625 C-6.09493858 0.12630187 -3.28413498 -0.0432123 0 0 Z " fill="#E45600" transform="translate(31.25,17.9375)"/>
	<path d="M0 0 C-0.33 1.32 -0.66 2.64 -1 4 C-1.66 4 -2.32 4 -3 4 C-3 9.94 -3 15.88 -3 22 C-2.34 22 -1.68 22 -1 22 C-1 22.99 -1 23.98 -1 25 C-0.34 25 0.32 25 1 25 C1 25.66 1 26.32 1 27 C-1.31 27 -3.62 27 -6 27 C-6 26.34 -6 25.68 -6 25 C-7.32 25 -8.64 25 -10 25 C-10 24.34 -10 23.68 -10 23 C-10.99 22.67 -11.98 22.34 -13 22 C-13 20.68 -13 19.36 -13 18 C-13.66 18 -14.32 18 -15 18 C-15 14.37 -15 10.74 -15 7 C-13.68 6.67 -12.36 6.34 -11 6 C-10.67 5.34 -10.34 4.68 -10 4 C-9.34 4 -8.68 4 -8 4 C-8 3.34 -8 2.68 -8 2 C-7.34 2 -6.68 2 -6 2 C-6 1.34 -6 0.68 -6 0 C-3.50907189 -1.24546405 -2.58919267 -0.7767578 0 0 Z " fill="#E65901" transform="translate(30,21)"/>
	<path d="M0 0 C0.66 0 1.32 0 2 0 C1.67 1.32 1.34 2.64 1 4 C0.34 4 -0.32 4 -1 4 C-1 4.66 -1 5.32 -1 6 C-0.34 6 0.32 6 1 6 C1 8.31 1 10.62 1 13 C0.34 13 -0.32 13 -1 13 C-1 16.3 -1 19.6 -1 23 C-0.34 23 0.32 23 1 23 C1 25.97 1 28.94 1 32 C0.34 32 -0.32 32 -1 32 C-1 33.32 -1 34.64 -1 36 C-0.01 36.33 0.98 36.66 2 37 C2 37.66 2 38.32 2 39 C2.66 39 3.32 39 4 39 C4 40.98 4 42.96 4 45 C7.63 45.33 11.26 45.66 15 46 C15 46.66 15 47.32 15 48 C18.96 48 22.92 48 27 48 C27 47.34 27 46.68 27 46 C31.455 45.505 31.455 45.505 36 45 C36 45.66 36 46.32 36 47 C34.35 47 32.7 47 31 47 C31 47.66 31 48.32 31 49 C30.01 49 29.02 49 28 49 C28 49.66 28 50.32 28 51 C23.38 51 18.76 51 14 51 C14 50.34 14 49.68 14 49 C12.35 49 10.7 49 9 49 C9 48.34 9 47.68 9 47 C6.69 47 4.38 47 2 47 C2 44.69 2 42.38 2 40 C1.34 40 0.68 40 0 40 C0 39.34 0 38.68 0 38 C-0.99 38 -1.98 38 -3 38 C-3 26.45 -3 14.9 -3 3 C-2.01 2.67 -1.02 2.34 0 2 C0 1.34 0 0.68 0 0 Z " fill="#005418" transform="translate(11,12)"/>
	<path d="M0 0 C0.66 0 1.32 0 2 0 C2 1.32 2 2.64 2 4 C2.66 4 3.32 4 4 4 C4 10.93 4 17.86 4 25 C3.34 25 2.68 25 2 25 C2 26.32 2 27.64 2 29 C1.34 29 0.68 29 0 29 C0 28.34 0 27.68 0 27 C-0.66 27 -1.32 27 -2 27 C-2 26.01 -2 25.02 -2 24 C-2.66 24 -3.32 24 -4 24 C-4 18.06 -4 12.12 -4 6 C-3.34 6 -2.68 6 -2 6 C-2 4.68 -2 3.36 -2 2 C-1.34 2 -0.68 2 0 2 C0 1.34 0 0.68 0 0 Z " fill="#1D0B00" transform="translate(31,19)"/>
	<path d="M0 0 C1.98 0 3.96 0 6 0 C6 1.32 6 2.64 6 4 C7.98 4 9.96 4 12 4 C12 3.34 12 2.68 12 2 C15.3 2 18.6 2 22 2 C22 4.97 22 7.94 22 11 C24.31 11.33 26.62 11.66 29 12 C29 14.64 29 17.28 29 20 C28.34 20 27.68 20 27 20 C27 18.35 27 16.7 27 15 C25.68 15 24.36 15 23 15 C23 14.34 23 13.68 23 13 C22.34 13 21.68 13 21 13 C19.5216774 10.04335481 19.93967217 7.25770263 20 4 C17.69 4 15.38 4 13 4 C13 4.66 13 5.32 13 6 C10.03 6 7.06 6 4 6 C4 4.68 4 3.36 4 2 C2.68 2 1.36 2 0 2 C0 1.34 0 0.68 0 0 Z " fill="#004E17" transform="translate(29,3)"/>
	<path d="M0 0 C4.62 0 9.24 0 14 0 C14 0.66 14 1.32 14 2 C14.99 2 15.98 2 17 2 C16.67 2.99 16.34 3.98 16 5 C14.68 4.67 13.36 4.34 12 4 C12 3.34 12 2.68 12 2 C7.38 2.33 2.76 2.66 -2 3 C-2.33 4.32 -2.66 5.64 -3 7 C-3.66 7 -4.32 7 -5 7 C-5 7.66 -5 8.32 -5 9 C-5.66 9 -6.32 9 -7 9 C-7 9.99 -7 10.98 -7 12 C-7.66 12 -8.32 12 -9 12 C-9 15.63 -9 19.26 -9 23 C-9.66 23 -10.32 23 -11 23 C-11 19.04 -11 15.08 -11 11 C-10.34 11 -9.68 11 -9 11 C-9 9.68 -9 8.36 -9 7 C-8.34 7 -7.68 7 -7 7 C-7 6.34 -7 5.68 -7 5 C-5.68 4.67 -4.36 4.34 -3 4 C-3 3.34 -3 2.68 -3 2 C-2.01 2 -1.02 2 0 2 C0 1.34 0 0.68 0 0 Z " fill="#0C5116" transform="translate(24,16)"/>
	<path d="M0 0 C0.99 0 1.98 0 3 0 C3 0.66 3 1.32 3 2 C3.66 2 4.32 2 5 2 C5 2.66 5 3.32 5 4 C5.66 4 6.32 4 7 4 C7 4.99 7 5.98 7 7 C7.66 7 8.32 7 9 7 C9 10.63 9 14.26 9 18 C8.34 18 7.68 18 7 18 C7 19.32 7 20.64 7 22 C5.68 22.33 4.36 22.66 3 23 C2.67 24.32 2.34 25.64 2 27 C-0.97 27 -3.94 27 -7 27 C-4 25 -4 25 -1 25 C-1 24.34 -1 23.68 -1 23 C-0.34 23 0.32 23 1 23 C1 22.34 1 21.68 1 21 C2.32 20.67 3.64 20.34 5 20 C5 18.68 5 17.36 5 16 C5.66 16 6.32 16 7 16 C7 13.69 7 11.38 7 9 C6.34 9 5.68 9 5 9 C5 7.68 5 6.36 5 5 C4.01 4.67 3.02 4.34 2 4 C2 3.34 2 2.68 2 2 C1.34 2 0.68 2 0 2 C0 1.34 0 0.68 0 0 Z " fill="#963604" transform="translate(40,21)"/>
	<path d="M0 0 C0.66 0 1.32 0 2 0 C2 2.97 2 5.94 2 9 C2.66 9 3.32 9 4 9 C4 10.32 4 11.64 4 13 C4.99 13.33 5.98 13.66 7 14 C7 14.66 7 15.32 7 16 C8.32 16 9.64 16 11 16 C11 16.66 11 17.32 11 18 C12.65 18 14.3 18 16 18 C16 18.66 16 19.32 16 20 C13.69 20 11.38 20 9 20 C9 19.34 9 18.68 9 18 C7.68 18 6.36 18 5 18 C5 17.34 5 16.68 5 16 C4.01 15.67 3.02 15.34 2 15 C2 13.68 2 12.36 2 11 C1.34 11 0.68 11 0 11 C0 7.37 0 3.74 0 0 Z " fill="#AA3302" transform="translate(15,28)"/>
	<path d="M0 0 C0.99 0 1.98 0 3 0 C3 0.66 3 1.32 3 2 C3.86625 1.505 3.86625 1.505 4.75 1 C7 0 7 0 11 0 C11 0.66 11 1.32 11 2 C10.01 2 9.02 2 8 2 C8 2.66 8 3.32 8 4 C4.62182575 4.84454356 2.32534757 5.10844919 -1 4 C-1 4.66 -1 5.32 -1 6 C-2.32 6.33 -3.64 6.66 -5 7 C-4.67 5.68 -4.34 4.36 -4 3 C-2.68 2.67 -1.36 2.34 0 2 C0 1.34 0 0.68 0 0 Z " fill="#005118" transform="translate(18,5)"/>
	<path d="M0 0 C0.89203125 0.00902344 1.7840625 0.01804687 2.703125 0.02734375 C3.37859375 0.03894531 4.0540625 0.05054687 4.75 0.0625 C4.75 0.3925 4.75 0.7225 4.75 1.0625 C3.1 1.0625 1.45 1.0625 -0.25 1.0625 C-0.58 1.7225 -0.91 2.3825 -1.25 3.0625 C-3.23 3.0625 -5.21 3.0625 -7.25 3.0625 C-7.25 3.7225 -7.25 4.3825 -7.25 5.0625 C-7.91 5.0625 -8.57 5.0625 -9.25 5.0625 C-9.25 5.7225 -9.25 6.3825 -9.25 7.0625 C-9.91 7.0625 -10.57 7.0625 -11.25 7.0625 C-11.58 8.0525 -11.91 9.0425 -12.25 10.0625 C-12.91 10.0625 -13.57 10.0625 -14.25 10.0625 C-14.25 9.0725 -14.25 8.0825 -14.25 7.0625 C-13.59 7.0625 -12.93 7.0625 -12.25 7.0625 C-12.25 6.4025 -12.25 5.7425 -12.25 5.0625 C-11.59 5.0625 -10.93 5.0625 -10.25 5.0625 C-9.92 3.7425 -9.59 2.4225 -9.25 1.0625 C-6.09493858 0.12630187 -3.28413498 -0.0432123 0 0 Z " fill="#B63702" transform="translate(31.25,17.9375)"/>
	<path d="M0 0 C0.99 0 1.98 0 3 0 C3 0.66 3 1.32 3 2 C3.66 2 4.32 2 5 2 C5 2.66 5 3.32 5 4 C5.66 4 6.32 4 7 4 C8.17571451 7.67410785 8.07366746 11.16929183 8 15 C7.67 15 7.34 15 7 15 C7 13.02 7 11.04 7 9 C6.34 9 5.68 9 5 9 C5 7.68 5 6.36 5 5 C4.01 4.67 3.02 4.34 2 4 C2 3.34 2 2.68 2 2 C1.34 2 0.68 2 0 2 C0 1.34 0 0.68 0 0 Z " fill="#B83200" transform="translate(40,21)"/>
	<path d="M0 0 C0.33 0.66 0.66 1.32 1 2 C0.0625 4.625 0.0625 4.625 -1 7 C-3.97 7 -6.94 7 -10 7 C-7 5 -7 5 -4 5 C-4 4.34 -4 3.68 -4 3 C-3.34 3 -2.68 3 -2 3 C-2 2.34 -2 1.68 -2 1 C-1.34 0.67 -0.68 0.34 0 0 Z " fill="#AD3B03" transform="translate(43,41)"/>
	<path d="M0 0 C0.66 0 1.32 0 2 0 C2 2.97 2 5.94 2 9 C2.66 9 3.32 9 4 9 C3.67 10.32 3.34 11.64 3 13 C3 12.34 3 11.68 3 11 C2.01 11 1.02 11 0 11 C0 7.37 0 3.74 0 0 Z " fill="#B83701" transform="translate(15,28)"/>
	<path d="M0 0 C-0.33 1.32 -0.66 2.64 -1 4 C-1.66 4 -2.32 4 -3 4 C-3 5.65 -3 7.3 -3 9 C-4.32 9 -5.64 9 -7 9 C-7 8.34 -7 7.68 -7 7 C-6.34 7 -5.68 7 -5 7 C-4.87625 6.030625 -4.7525 5.06125 -4.625 4.0625 C-4.41875 3.051875 -4.2125 2.04125 -4 1 C-2 0 -2 0 0 0 Z " fill="#005518" transform="translate(54,48)"/>
	<path d="M0 0 C0.66 0 1.32 0 2 0 C3.39935013 2.79870027 3.25265405 4.90498792 3 8 C1.625 9.875 1.625 9.875 0 11 C-0.66 11 -1.32 11 -2 11 C-2 10.34 -2 9.68 -2 9 C-1.34 9 -0.68 9 0 9 C0 6.03 0 3.06 0 0 Z " fill="#005519" transform="translate(56,28)"/>
	<path d="M0 0 C1.93742341 -0.02703381 3.87495479 -0.04641125 5.8125 -0.0625 C6.89144531 -0.07410156 7.97039063 -0.08570312 9.08203125 -0.09765625 C12 0 12 0 15 1 C14.67 1.99 14.34 2.98 14 4 C12.68 3.67 11.36 3.34 10 3 C10 2.34 10 1.68 10 1 C6.7 1 3.4 1 0 1 C0 0.67 0 0.34 0 0 Z " fill="#2F4711" transform="translate(26,17)"/>
	<path d="M0 0 C0.66 0 1.32 0 2 0 C2 1.32 2 2.64 2 4 C2.66 4.33 3.32 4.66 4 5 C4 6.32 4 7.64 4 9 C3.34 9 2.68 9 2 9 C2 8.34 2 7.68 2 7 C1.34 7 0.68 7 0 7 C-1.04449911 3.86650268 -0.93423645 3.01031744 0 0 Z " fill="#005117" transform="translate(52,39)"/>
	<path d="M0 0 C1.32 0 2.64 0 4 0 C4 1.32 4 2.64 4 4 C2.35 4.33 0.7 4.66 -1 5 C-0.67 3.35 -0.34 1.7 0 0 Z " fill="#F4B42B" transform="translate(22,23)"/>
  </g>
</svg>