<?xml version="1.0" encoding="UTF-8"?>
<svg xmlns="http://www.w3.org/2000/svg"
     width="64" height="64" viewBox="0 0 64 64"

		 shape-rendering="geometricPrecision">

	<defs>
		<clipPath id="clipCircle" clipPathUnits="userSpaceOnUse">
			<circle cx="32" cy="32" r="25"/>
		</clipPath>
	</defs>

	<g clip-path="url(#clipCircle)">
		<g transform="translate(32 32) scale(0.0625) translate(-512 -512)">
		<path d="M0 0 C337.92 0 675.84 0 1024 0 C1024 337.92 1024 675.84 1024 1024 C686.08 1024 348.16 1024 0 1024 C0 686.08 0 348.16 0 0 Z " fill="#02001C" transform="translate(0,0)"/>
		<path d="M0 0 C9.24 0 18.48 0 28 0 C28 55.44 28 110.88 28 168 C18.43 168 8.86 168 -1 168 C-1 177.24 -1 186.48 -1 196 C-19.48 196 -37.96 196 -57 196 C-57 205.24 -57 214.48 -57 224 C-75.48 224 -93.96 224 -113 224 C-113 233.24 -113 242.48 -113 252 C-131.48 252 -149.96 252 -169 252 C-169 261.57 -169 271.14 -169 281 C-191.77 281 -214.54 281 -238 281 C-238 271.76 -238 262.52 -238 253 C-224.8 253 -211.6 253 -198 253 C-198 243.43 -198 233.86 -198 224 C-179.19 224 -160.38 224 -141 224 C-141 214.76 -141 205.52 -141 196 C-122.52 196 -104.04 196 -85 196 C-85 186.76 -85 177.52 -85 168 C-66.52 168 -48.04 168 -29 168 C-29 158.76 -29 149.52 -29 140 C-19.43 140 -9.86 140 0 140 C0 93.8 0 47.6 0 0 Z " fill="#0A0C41" transform="translate(272,529)"/>
		<path d="M0 0 C1.16781006 0.00523682 2.33562012 0.01047363 3.53881836 0.01586914 C4.79887695 0.0190918 6.05893555 0.02231445 7.35717773 0.02563477 C8.6976732 0.03399136 10.03816799 0.04245632 11.37866211 0.05102539 C12.72306153 0.05603879 14.06746271 0.06060197 15.41186523 0.06469727 C18.71334151 0.07653051 22.01473014 0.09301568 25.31616211 0.11352539 C26.24701276 11.38447921 26.43954606 22.55978799 26.37866211 33.86352539 C26.37362853 35.504149 26.36906896 37.14477413 26.36499023 38.78540039 C26.35691069 41.75905335 26.34631169 44.7326692 26.33203125 47.70629883 C26.32208412 49.8420244 26.31616211 51.97777665 26.31616211 54.11352539 C25.82116211 55.10352539 25.82116211 55.10352539 25.31616211 56.11352539 C16.07616211 56.11352539 6.83616211 56.11352539 -2.68383789 56.11352539 C-2.35383789 58.09352539 -2.02383789 60.07352539 -1.68383789 62.11352539 C-1.99862235 63.45135932 -2.32971445 64.78556249 -2.68383789 66.11352539 C-2.43633789 67.07258789 -2.43633789 67.07258789 -2.18383789 68.05102539 C-1.68383789 70.11352539 -1.68383789 70.11352539 -2.18383789 72.40649414 C-2.72115845 75.31558126 -2.55269501 77.5628178 -2.18383789 80.48852539 C-1.69824732 84.98630807 -1.92929755 88.68060092 -2.68383789 93.11352539 C-2.18883789 94.10352539 -2.18883789 94.10352539 -1.68383789 95.11352539 C-1.56096019 97.0481348 -1.50828901 98.98755443 -1.49633789 100.92602539 C-1.4821582 101.9637207 -1.46797852 103.00141602 -1.45336914 104.07055664 C-1.68669362 107.15123072 -2.38264903 109.33114131 -3.68383789 112.11352539 C-3.02383789 112.11352539 -2.36383789 112.11352539 -1.68383789 112.11352539 C-1.76762695 112.99395508 -1.85141602 113.87438477 -1.93774414 114.78149414 C-2.03958008 115.94293945 -2.14141602 117.10438477 -2.24633789 118.30102539 C-2.35075195 119.44958008 -2.45516602 120.59813477 -2.56274414 121.78149414 C-2.67326119 124.82249565 -2.37056645 127.1747311 -1.68383789 130.11352539 C-1.64462974 132.11314103 -1.63940442 134.11401903 -1.68383789 136.11352539 C-1.68383789 136.77352539 -1.68383789 137.43352539 -1.68383789 138.11352539 C-1.84625977 138.83411133 -2.00868164 139.55469727 -2.17602539 140.29711914 C-2.77759774 143.63353195 -2.81608775 146.78671391 -2.80883789 150.17602539 C-2.81141602 151.38387695 -2.81399414 152.59172852 -2.81665039 153.83618164 C-2.82001057 156.93359795 -2.82001057 156.93359795 -2.11352539 159.10961914 C-1.68383789 161.11352539 -1.68383789 161.11352539 -2.15087891 164.09158325 C-2.87910035 168.88113519 -2.80773749 173.63345101 -2.78149414 178.46850586 C-2.78005653 179.49084509 -2.77861893 180.51318432 -2.77713776 181.56650352 C-2.77337431 183.78754789 -2.76728664 186.00858927 -2.75914001 188.22962189 C-2.74611981 191.79035372 -2.73917333 195.35105313 -2.73376465 198.9118042 C-2.72552039 203.98208383 -2.7148372 209.05234918 -2.70214844 214.12261963 C-2.67046361 227.14561395 -2.65779314 240.16862068 -2.65258789 253.19165039 C-2.6517646 255.101061 -2.6517646 255.101061 -2.65092468 257.04904556 C-2.64448355 284.41401388 -2.97656662 311.75728309 -3.68383789 339.11352539 C-12.92383789 339.11352539 -22.16383789 339.11352539 -31.68383789 339.11352539 C-31.68383789 245.72352539 -31.68383789 152.33352539 -31.68383789 56.11352539 C-22.44383789 56.11352539 -13.20383789 56.11352539 -3.68383789 56.11352539 C-3.69543945 52.15481445 -3.70704102 48.19610352 -3.71899414 44.11743164 C-3.72678322 40.30159587 -3.73286083 36.48576097 -3.73876953 32.66992188 C-3.74381172 30.00911058 -3.75064525 27.34830207 -3.75927734 24.6875 C-3.77134798 20.87247023 -3.77706718 17.05747695 -3.78149414 13.24243164 C-3.78665543 12.04453506 -3.79181671 10.84663849 -3.7971344 9.61244202 C-3.7972477 7.96084328 -3.7972477 7.96084328 -3.79736328 6.27587891 C-3.79958389 5.30103043 -3.8018045 4.32618195 -3.80409241 3.3217926 C-3.62614777 0.0541456 -3.3015625 0.13965492 0 0 Z " fill="#0B0D43" transform="translate(274.683837890625,189.886474609375)"/>
		<path d="M0 0 C1.01673766 0.00092179 2.03347532 0.00184359 3.08102322 0.00279331 C4.24355114 0.00141865 5.40607906 0.00004398 6.60383511 -0.00137234 C7.89064175 0.00222294 9.17744839 0.00581821 10.50324917 0.00952244 C11.86298527 0.00980431 13.22272153 0.00964658 14.58245754 0.00907993 C18.28477281 0.00879196 21.98705595 0.01468871 25.68936372 0.02165389 C29.55444283 0.0278874 33.41952261 0.02849123 37.28460598 0.0296793 C44.60860185 0.03279262 51.93258287 0.04100602 59.25657219 0.05102879 C67.5925895 0.06218989 75.92860751 0.06770037 84.26463044 0.07272422 C101.41701538 0.08318864 118.56937985 0.10153413 135.72175503 0.12304783 C135.72175503 9.69304783 135.72175503 19.26304783 135.72175503 29.12304783 C98.76175503 29.12304783 61.80175503 29.12304783 23.72175503 29.12304783 C23.72175503 38.69304783 23.72175503 48.26304783 23.72175503 58.12304783 C5.24175503 58.12304783 -13.23824497 58.12304783 -32.27824497 58.12304783 C-32.27824497 67.03304783 -32.27824497 75.94304783 -32.27824497 85.12304783 C-51.41824497 85.12304783 -70.55824497 85.12304783 -90.27824497 85.12304783 C-90.27824497 75.88304783 -90.27824497 66.64304783 -90.27824497 57.12304783 C-80.70824497 57.12304783 -71.13824497 57.12304783 -61.27824497 57.12304783 C-61.27824497 48.21304783 -61.27824497 39.30304783 -61.27824497 30.12304783 C-33.06324497 29.62804783 -33.06324497 29.62804783 -4.27824497 29.12304783 C-3.69138108 22.08068111 -3.1412195 15.43069794 -3.27824497 8.43554783 C-3.32321448 5.99145522 -3.32637 3.56840088 -3.27824497 1.12304783 C-2.27824497 0.12304783 -2.27824497 0.12304783 0 0 Z " fill="#04022A" transform="translate(418.278244972229,329.8769521713257)"/>
		<path d="M0 0 C9.57 0 19.14 0 29 0 C29 8.91 29 17.82 29 27 C38.24 27 47.48 27 57 27 C57 45.81 57 64.62 57 84 C66.24 84 75.48 84 85 84 C85 102.48 85 120.96 85 140 C75.76 140 66.52 140 57 140 C57 130.76 57 121.52 57 112 C47.76 112 38.52 112 29 112 C29 93.19 29 74.38 29 55 C19.43 55 9.86 55 0 55 C0 36.85 0 18.7 0 0 Z " fill="#0B0D43" transform="translate(328,557)"/>
		<path d="M0 0 C8.91 0 17.82 0 27 0 C27 8.91 27 17.82 27 27 C22.71 27 18.42 27 14 27 C14 36.24 14 45.48 14 55 C9.38 55 4.76 55 0 55 C0 59.95 0 64.9 0 70 C-28.05 70 -56.1 70 -85 70 C-85 65.38 -85 60.76 -85 56 C-76.09 56 -67.18 56 -58 56 C-58 46.43 -58 36.86 -58 27 C-38.86 27 -19.72 27 0 27 C0 18.09 0 9.18 0 0 Z " fill="#8D91CF" transform="translate(639,444)"/>
		<path d="M0 0 C9.24 0 18.48 0 28 0 C28 8.91 28 17.82 28 27 C46.81 27 65.62 27 85 27 C85 36.57 85 46.14 85 56 C94.24 56 103.48 56 113 56 C113 60.62 113 65.24 113 70 C84.95 70 56.9 70 28 70 C28 65.05 28 60.1 28 55 C23.71 55 19.42 55 15 55 C15 45.76 15 36.52 15 27 C10.05 27 5.1 27 0 27 C0 18.09 0 9.18 0 0 Z " fill="#9FA3E2" transform="translate(357,444)"/>
		<path d="M0 0 C4.29 0 8.58 0 13 0 C13 28.05 13 56.1 13 85 C3.76 85 -5.48 85 -15 85 C-15 131.2 -15 177.4 -15 225 C-15.33 225 -15.66 225 -16 225 C-16.02332585 199.33166256 -16.04097763 173.6633267 -16.05181217 147.99498081 C-16.0569758 136.07762359 -16.06401976 124.16027293 -16.07543945 112.24291992 C-16.08538426 101.85980679 -16.09185294 91.47669842 -16.09408849 81.09358066 C-16.09539595 75.59215674 -16.09848398 70.09074643 -16.10573006 64.58932686 C-16.11248707 59.41761015 -16.11461762 54.24591275 -16.11310768 49.07419205 C-16.11338415 47.17018085 -16.11539116 45.26616904 -16.11920547 43.36216164 C-16.12413776 40.77446234 -16.12300002 38.18683715 -16.12025452 35.59913635 C-16.12316736 34.83553238 -16.1260802 34.07192841 -16.12908131 33.28518492 C-16.11412121 28.11412121 -16.11412121 28.11412121 -15 27 C-12.4672235 26.92679837 -9.96896082 26.90772431 -7.4375 26.9375 C-4.983125 26.958125 -2.52875 26.97875 0 27 C0 18.09 0 9.18 0 0 Z " fill="#060430" transform="translate(287,444)"/>
		<path d="M0 0 C9.24 0 18.48 0 28 0 C28 9.24 28 18.48 28 28 C19.09 28 10.18 28 1 28 C1.03931641 34.59586823 1.03931641 34.59586823 1.09008789 41.19165039 C1.09258545 42.02688232 1.09508301 42.86211426 1.09765625 43.72265625 C1.10289307 44.56578369 1.10812988 45.40891113 1.11352539 46.27758789 C0.97761754 49.53674589 0.46131512 52.77079419 0 56 C-9.24 56 -18.48 56 -28 56 C-28 46.76 -28 37.52 -28 28 C-18.76 28 -9.52 28 0 28 C0 18.76 0 9.52 0 0 Z " fill="#0B0D43" transform="translate(329,134)"/>
		<path d="M0 0 C9.57 0 19.14 0 29 0 C29 9.24 29 18.48 29 28 C23.92353038 29.69215654 21.30257205 30.25064904 16.1875 30.1875 C15.04667969 30.18105469 13.90585937 30.17460938 12.73046875 30.16796875 C8.47347024 29.97629238 4.23524824 29.47058314 0 29 C0 19.43 0 9.86 0 0 Z " fill="#0A0B40" transform="translate(415,77)"/>
		<path d="M0 0 C9.24 0 18.48 0 28 0 C28 9.57 28 19.14 28 29 C18.76 29 9.52 29 0 29 C0 19.43 0 9.86 0 0 Z " fill="#0B0D44" transform="translate(300,415)"/>
		<path d="M0 0 C9.57 0 19.14 0 29 0 C29 9.24 29 18.48 29 28 C19.43 28 9.86 28 0 28 C0 18.76 0 9.52 0 0 Z " fill="#0B0C43" transform="translate(328,387)"/>
		<path d="M0 0 C9.57 0 19.14 0 29 0 C29 9.24 29 18.48 29 28 C19.43 28 9.86 28 0 28 C0 18.76 0 9.52 0 0 Z " fill="#0B0D42" transform="translate(357,106)"/>
		<path d="M0 0 C9.24 0 18.48 0 28 0 C28 9.24 28 18.48 28 28 C18.76 28 9.52 28 0 28 C0 18.76 0 9.52 0 0 Z " fill="#0A0A3E" transform="translate(442,725)"/>
		<path d="M0 0 C9.24 0 18.48 0 28 0 C28 9.24 28 18.48 28 28 C18.76 28 9.52 28 0 28 C0 18.76 0 9.52 0 0 Z " fill="#0B0C42" transform="translate(414,697)"/>
		<path d="M0 0 C9.24 0 18.48 0 28 0 C28 9.24 28 18.48 28 28 C22.18375 28.0309375 22.18375 28.0309375 16.25 28.0625 C15.03344727 28.071604 13.81689453 28.08070801 12.56347656 28.09008789 C11.11666504 28.09383423 11.11666504 28.09383423 9.640625 28.09765625 C8.65610352 28.10289307 7.67158203 28.10812988 6.65722656 28.11352539 C4 28 4 28 0 27 C0 18.09 0 9.18 0 0 Z " fill="#04032D" transform="translate(300,697)"/>
		<path d="M0 0 C19.14 0 38.28 0 58 0 C58 0.33 58 0.66 58 1 C52.75715692 1.14538749 47.51424032 1.28763537 42.27124023 1.42724609 C40.49582748 1.47493181 38.72043569 1.52340595 36.94506836 1.57275391 C25.29146196 1.89600707 13.65837921 2.0504965 2 2 C2 10.91 2 19.82 2 29 C1.67 29 1.34 29 1 29 C0.67 19.43 0.34 9.86 0 0 Z " fill="#ACAFEF" transform="translate(581,471)"/>
		<path d="M0 0 C1.65 0 3.3 0 5 0 C5 0.66 5 1.32 5 2 C4.01 2.33 3.02 2.66 2 3 C1.67 4.98 1.34 6.96 1 9 C0.67 9 0.34 9 0 9 C0 6.03 0 3.06 0 0 Z " fill="#9DA1E3" transform="translate(581,471)"/>
		</g>
	</g>
  <circle cx="32" cy="32" r="26" fill="none" stroke="#dcdcdc" stroke-width="3"/>
</svg>